<svg width="114" height="35" viewBox="0 0 114 35" fill="none" xmlns="http://www.w3.org/2000/svg">
<path d="M17 34.5C7.61222 34.5 0 26.8878 0 17.5H17V34.5Z" fill="#703BF7"/>
<path d="M0 0.5C9.38778 0.5 17 8.11222 17 17.5H0V0.5Z" fill="#703BF7"/>
<path d="M17 34.5C26.3878 34.5 34 26.8878 34 17.5H17V34.5Z" fill="#703BF7"/>
<path d="M34 17.5C34 8.11222 26.3878 0.5 17 0.5V17.5H34Z" fill="#703BF7"/>
<path d="M111.081 25.1928V19.5214C111.081 18.8662 110.87 18.327 110.447 17.9039C110.037 17.4807 109.505 17.2692 108.85 17.2692C108.413 17.2692 108.024 17.3647 107.683 17.5558C107.341 17.7469 107.075 18.0131 106.884 18.3543C106.693 18.6956 106.597 19.0846 106.597 19.5214L105.717 19.03C105.717 18.2792 105.881 17.6172 106.208 17.0439C106.536 16.457 106.986 15.9997 107.56 15.6721C108.147 15.3309 108.802 15.1603 109.525 15.1603C110.262 15.1603 110.918 15.3514 111.491 15.7336C112.064 16.1021 112.515 16.5867 112.842 17.1873C113.17 17.7742 113.334 18.3884 113.334 19.03V25.1928H111.081ZM104.345 25.1928V15.365H106.597V25.1928H104.345Z" fill="white"/>
<path d="M99.567 25.1928V15.365H101.819V25.1928H99.567ZM100.693 13.5632C100.311 13.5632 99.9902 13.4336 99.7308 13.1742C99.4852 12.9149 99.3623 12.5941 99.3623 12.2119C99.3623 11.8297 99.4852 11.509 99.7308 11.2496C99.9902 10.9903 100.311 10.8606 100.693 10.8606C101.089 10.8606 101.41 10.9903 101.655 11.2496C101.901 11.509 102.024 11.8297 102.024 12.2119C102.024 12.5941 101.901 12.9149 101.655 13.1742C101.41 13.4336 101.089 13.5632 100.693 13.5632Z" fill="white"/>
<path d="M93.1751 25.3976C92.1924 25.3976 91.3051 25.1792 90.5135 24.7424C89.7354 24.2919 89.1144 23.6777 88.6503 22.8997C88.1998 22.1216 87.9746 21.248 87.9746 20.2789C87.9746 19.3098 88.1998 18.443 88.6503 17.6786C89.1007 16.9006 89.7081 16.2864 90.4725 15.8359C91.2505 15.3855 92.1105 15.1603 93.0523 15.1603C93.9668 15.1603 94.7722 15.3718 95.4683 15.795C96.1781 16.2181 96.7309 16.7982 97.1267 17.5353C97.5362 18.2724 97.741 19.1119 97.741 20.0537C97.741 20.2175 97.7273 20.3881 97.7 20.5656C97.6864 20.7294 97.6591 20.9136 97.6181 21.1184H89.5511V19.2757H96.4511L95.6116 20.0127C95.5843 19.4122 95.4683 18.9071 95.2635 18.4976C95.0588 18.0881 94.7653 17.7742 94.3831 17.5558C94.0146 17.3374 93.5573 17.2282 93.0113 17.2282C92.4381 17.2282 91.9398 17.3511 91.5167 17.5967C91.0936 17.8424 90.766 18.1905 90.5339 18.641C90.3019 19.0777 90.1859 19.6033 90.1859 20.2175C90.1859 20.8317 90.3087 21.3709 90.5544 21.835C90.8001 22.2991 91.1482 22.6608 91.5986 22.9201C92.049 23.1658 92.5677 23.2887 93.1547 23.2887C93.6597 23.2887 94.1238 23.2 94.5469 23.0225C94.9837 22.8451 95.3523 22.5857 95.6526 22.2445L97.0858 23.6982C96.608 24.2578 96.0279 24.6809 95.3454 24.9676C94.663 25.2542 93.9395 25.3976 93.1751 25.3976Z" fill="white"/>
<path d="M82.6461 25.1927V11.27H84.8983V25.1927H82.6461ZM80.2915 17.4124V15.3649H87.2529V17.4124H80.2915Z" fill="white"/>
<path d="M73.3898 25.3976C72.5025 25.3976 71.6972 25.1723 70.9738 24.7219C70.264 24.2715 69.6975 23.664 69.2744 22.8997C68.8649 22.1216 68.6602 21.2549 68.6602 20.2994C68.6602 19.3303 68.8649 18.4635 69.2744 17.6991C69.6975 16.9211 70.264 16.3069 70.9738 15.8564C71.6972 15.3923 72.5025 15.1603 73.3898 15.1603C74.1405 15.1603 74.8025 15.3241 75.3758 15.6517C75.9627 15.9656 76.4268 16.4024 76.7681 16.962C77.1093 17.5217 77.2799 18.1564 77.2799 18.8662V21.6917C77.2799 22.4014 77.1093 23.0362 76.7681 23.5958C76.4405 24.1554 75.9832 24.599 75.3963 24.9266C74.8093 25.2406 74.1405 25.3976 73.3898 25.3976ZM73.7583 23.2682C74.591 23.2682 75.2598 22.9884 75.7648 22.4287C76.2835 21.8691 76.5429 21.1525 76.5429 20.2789C76.5429 19.692 76.4268 19.1733 76.1948 18.7228C75.9627 18.2724 75.6352 17.9243 75.212 17.6786C74.8025 17.4193 74.318 17.2896 73.7583 17.2896C73.2123 17.2896 72.7278 17.4193 72.3046 17.6786C71.8951 17.9243 71.5675 18.2724 71.3218 18.7228C71.0898 19.1733 70.9738 19.692 70.9738 20.2789C70.9738 20.8659 71.0898 21.3845 71.3218 21.835C71.5675 22.2854 71.8951 22.6403 72.3046 22.8997C72.7278 23.1454 73.2123 23.2682 73.7583 23.2682ZM76.3995 25.1928V22.5516L76.7886 20.1561L76.3995 17.781V15.365H78.6517V25.1928H76.3995Z" fill="white"/>
<path d="M63.3106 25.1927V11.27H65.5628V25.1927H63.3106ZM60.9561 17.4124V15.3649H67.9174V17.4124H60.9561Z" fill="white"/>
<path d="M56.2331 25.3976C55.6871 25.3976 55.1616 25.3293 54.6566 25.1928C54.1515 25.0427 53.6875 24.8379 53.2643 24.5786C52.8412 24.3056 52.4726 23.978 52.1587 23.5958L53.5919 22.1626C53.9332 22.5584 54.3222 22.8587 54.759 23.0635C55.2094 23.2546 55.7144 23.3501 56.2741 23.3501C56.7791 23.3501 57.1613 23.275 57.4207 23.1249C57.68 22.9747 57.8097 22.7563 57.8097 22.4697C57.8097 22.1694 57.6868 21.9374 57.4411 21.7736C57.1954 21.6098 56.8747 21.4733 56.4788 21.3641C56.0966 21.2412 55.6871 21.1184 55.2503 20.9955C54.8272 20.8727 54.4177 20.7089 54.0219 20.5041C53.6397 20.2857 53.3257 19.9923 53.08 19.6237C52.8344 19.2552 52.7115 18.7774 52.7115 18.1905C52.7115 17.5626 52.8548 17.0235 53.1415 16.573C53.4418 16.1226 53.8581 15.7745 54.3904 15.5288C54.9364 15.2831 55.5848 15.1603 56.3355 15.1603C57.1272 15.1603 57.8233 15.3036 58.4239 15.5902C59.0381 15.8632 59.55 16.2796 59.9595 16.8392L58.5263 18.2724C58.2396 17.9175 57.912 17.6513 57.5435 17.4739C57.175 17.2965 56.7518 17.2077 56.2741 17.2077C55.8236 17.2077 55.4756 17.276 55.2299 17.4125C54.9842 17.549 54.8613 17.7469 54.8613 18.0062C54.8613 18.2792 54.9842 18.4908 55.2299 18.641C55.4756 18.7911 55.7895 18.9208 56.1717 19.03C56.5675 19.1392 56.977 19.262 57.4002 19.3985C57.837 19.5214 58.2465 19.6988 58.6286 19.9308C59.0245 20.1492 59.3453 20.4495 59.591 20.8317C59.8366 21.2003 59.9595 21.6848 59.9595 22.2854C59.9595 23.2409 59.6251 23.9985 58.9562 24.5581C58.2874 25.1177 57.3797 25.3976 56.2331 25.3976Z" fill="white"/>
<path d="M41.249 25.1928V10.8606H43.6036V25.1928H41.249ZM42.8665 25.1928V23.043H50.8925V25.1928H42.8665ZM42.8665 18.9071V16.8392H50.1964V18.9071H42.8665ZM42.8665 13.0104V10.8606H50.7902V13.0104H42.8665Z" fill="white"/>
</svg>
